<?xml version="1.0" encoding="UTF-8" standalone="no"?>
<!DOCTYPE svg PUBLIC "-//W3C//DTD SVG 1.1//EN" "http://www.w3.org/Graphics/SVG/1.1/DTD/svg11.dtd">
<svg width="100%" height="100%" viewBox="0 0 3889 4512" version="1.1" xmlns="http://www.w3.org/2000/svg" xmlns:xlink="http://www.w3.org/1999/xlink" xml:space="preserve" xmlns:serif="http://www.serif.com/" style="fill-rule:evenodd;clip-rule:evenodd;stroke-linejoin:round;stroke-miterlimit:2;">
    <g transform="matrix(5.55556,0,0,5.55556,0,0)">
        <g id="l4ayfUyyDwJiLKrtGAfKrMg" transform="matrix(1.11388,0,0,1.11388,0,0)">
            <g>
                <path id="puj4GKisy" d="M319.4,673.1C310.9,670.7 305.5,667.3 298.2,659.7C291,652.1 286.6,643.6 285.1,634.1C284.4,630 284.3,600.5 284.7,550L285.3,472.2L278.3,461.3C246.1,411.6 134.4,234.9 132.3,230.4C128.5,222 127.8,207.2 130.9,197.2C134.7,184.5 144,173.3 154.8,168.3C174.9,158.9 197.4,162.9 211.6,178.4C217,184.2 238.4,217.4 318.1,343.8C325.5,355.7 332.1,365.5 332.6,365.6C333.1,365.8 342.1,352.4 352.5,335.8C373.2,303 377.9,297.3 388.2,292.3C396.9,288.1 402,286.8 410.9,286.9C446.4,286.9 469.9,324.9 453.9,356.3C452.3,359.2 407.3,430.7 386.4,463.3L382,470.1L382,549.8C382,637.3 382,637.2 375.9,649.1C372.2,656.6 363.1,665.9 356.2,669.4C345.1,675 331,676.4 319.4,673.1Z" style="fill-rule:nonzero;"/>
            </g>
        </g>
        <g id="lJyp4aeKstDMM7bO2FYXyy" transform="matrix(1.11388,0,0,1.11388,0,0)">
            <g>
                <path id="p8mt8Iqmr" d="M284.4,603.5C284.4,590.9 284.6,585.8 284.7,592.3C284.9,598.8 284.9,609.1 284.7,615.3C284.6,621.5 284.4,616.2 284.4,603.5Z" style="fill:rgb(71,99,211);fill-rule:nonzero;"/>
                <path id="pgZnPxgOB" d="M476.7,258.6C457.7,253.1 443.9,237.4 440.9,217.9C438.2,200.8 446.5,181.5 460.6,172C480.5,158.6 506,160.8 522.6,177.4C536.3,191.1 540.3,210.3 533.4,228.8C528.8,241.3 519,251.3 506,256.6C498.1,259.8 484.3,260.8 476.7,258.6Z" style="fill:rgb(71,99,211);fill-rule:nonzero;"/>
            </g>
        </g>
    </g>
</svg>
